<?xml version="1.0" encoding="UTF-8"?>
<svg width="24" height="24" viewBox="0 0 24 24" fill="none" xmlns="http://www.w3.org/2000/svg">
    <path d="M12 2C6.48 2 2 6.48 2 12C2 17.52 6.48 22 12 22C17.52 22 22 17.52 22 12C22 6.48 17.52 2 12 2ZM16 12C16 12.41 15.66 12.75 15.25 12.75H12.75V15.25C12.75 15.66 12.41 16 12 16C11.59 16 11.25 15.66 11.25 15.25V12.75H8.75C8.34 12.75 8 12.41 8 12C8 11.59 8.34 11.25 8.75 11.25H11.25V8.75C11.25 8.34 11.59 8 12 8C12.41 8 12.75 8.34 12.75 8.75V11.25H15.25C15.66 11.25 16 11.59 16 12Z" fill="currentColor"/>
</svg>
